HIERARCHY
ROOT Hips
{
    OFFSET 0.000000 0.000000 0.000000
    CHANNELS 6 Xposition Yposition Zposition Zrotation Xrotation Yrotation
    JOINT Spine
    {
        OFFSET -0.000000 7.750029 0.000000
        CHANNELS 3 Zrotation Xrotation Yrotation
        JOINT Spine1
        {
            OFFSET -0.000000 19.767460 0.000000
            CHANNELS 3 Zrotation Xrotation Yrotation
            JOINT Neck
            {
                OFFSET -0.000000 19.686279 1.789662
                CHANNELS 3 Zrotation Xrotation Yrotation
                JOINT Head
                {
                    OFFSET -0.000000 13.231757 -1.890251
                    CHANNELS 3 Zrotation Xrotation Yrotation
                    End Site
                    {
                        OFFSET -0.000000 23.628138 0.000000
                    }
                }
            }
            JOINT LeftShoulder
            {
                OFFSET 3.736819 16.910755 -0.280982
                CHANNELS 3 Zrotation Xrotation Yrotation
                JOINT LeftArm
                {
                    OFFSET 13.626117 0.000000 0.000000
                    CHANNELS 3 Zrotation Xrotation Yrotation
                    JOINT LeftForeArm
                    {
                        OFFSET 31.364786 0.000000 0.000000
                        CHANNELS 3 Zrotation Xrotation Yrotation
                        JOINT LeftHand
                        {
                            OFFSET 23.389509 0.000000 0.000000
                            CHANNELS 3 Zrotation Xrotation Yrotation
                            End Site
                            {
                                OFFSET 14.176883 0.000000 0.000000
                            }
                        }
                    }
                }
            }
            JOINT RightShoulder
            {
                OFFSET -3.821718 16.910755 -0.280982
                CHANNELS 3 Zrotation Xrotation Yrotation
                JOINT RightArm
                {
                    OFFSET -13.626117 0.000000 0.000000
                    CHANNELS 3 Zrotation Xrotation Yrotation
                    JOINT RightForeArm
                    {
                        OFFSET -31.364786 0.000000 0.000000
                        CHANNELS 3 Zrotation Xrotation Yrotation
                        JOINT RightHand
                        {
                            OFFSET -23.389509 0.000000 0.000000
                            CHANNELS 3 Zrotation Xrotation Yrotation
                            End Site
                            {
                                OFFSET -14.176883 0.000000 0.000000
                            }
                        }
                    }
                }
            }
        }
    }
    JOINT LeftUpLeg
    {
        OFFSET 9.451255 0.000000 0.000000
        CHANNELS 3 Zrotation Xrotation Yrotation
        JOINT LeftLeg
        {
            OFFSET -0.000000 -41.898624 0.000000
            CHANNELS 3 Zrotation Xrotation Yrotation
            JOINT LeftFoot
            {
                OFFSET -0.000000 -38.481331 0.000000
                CHANNELS 3 Zrotation Xrotation Yrotation
                JOINT LeftToeBase
                {
                    OFFSET -0.000000 -6.143315 14.176883
                    CHANNELS 3 Zrotation Xrotation Yrotation
                    End Site
                    {
                        OFFSET -0.000000 0.000000 3.780502
                    }
                }
            }
        }
    }
    JOINT RightUpLeg
    {
        OFFSET -9.451255 0.000000 0.000000
        CHANNELS 3 Zrotation Xrotation Yrotation
        JOINT RightLeg
        {
            OFFSET -0.000000 -41.898624 0.000000
            CHANNELS 3 Zrotation Xrotation Yrotation
            JOINT RightFoot
            {
                OFFSET -0.000000 -38.481331 0.000000
                CHANNELS 3 Zrotation Xrotation Yrotation
                JOINT RightToeBase
                {
                    OFFSET -0.000000 -6.143315 14.176883
                    CHANNELS 3 Zrotation Xrotation Yrotation
                    End Site
                    {
                        OFFSET -0.000000 0.000000 3.780502
                    }
                }
            }
        }
    }
}
MOTION
Frames:    5
Frame Time:    0.010000
-2.028955    82.162735    38.096306    3.315008    -10.236813    177.353607    4.112808    0.051305    0.976665    2.747469    6.261055    0.828147    -6.730826    33.365353    4.706367    2.877475    -43.770031    5.222679    9.170209    6.387180    -3.451684    -78.085564    46.965233    5.274356    4.087019    -11.691364    -32.777065    -14.601466    -9.448663    -8.407082    -8.829899    4.058816    2.973948    57.107407    38.593128    13.617256    -6.446288    -16.788666    32.522320    9.381896    -14.090317    11.142190    16.436785    -37.966759    9.279937    -84.698563    85.224014    74.035797    2.761600    -13.676589    11.808685    0.000000    0.000000    0.000000    0.587561    -12.746076    6.531767    8.976693    41.321533    4.136177    -9.202608    -33.942928    -22.079048    0.000000    0.000000    0.000000    
-2.131993    82.415726    36.032406    2.970039    -10.583481    176.733276    4.194389    0.048112    1.781083    1.730602    5.725569    1.696254    -6.357136    33.286018    4.310088    3.076014    -43.141338    4.965579    9.624447    7.647143    -2.868873    -79.290596    48.611435    7.255641    4.845544    -9.443081    -32.722366    -16.423185    -6.695949    -9.343292    -8.914395    3.772317    2.501180    57.046284    39.992485    13.556198    -7.209105    -17.426868    35.052387    9.213395    -14.419672    10.489909    17.677776    -40.602932    10.883495    -70.508278    84.796013    57.921402    2.557713    -13.934055    13.065630    0.000000    0.000000    0.000000    -0.173021    -10.217259    5.122781    7.548529    38.075535    3.455625    -6.782940    -33.702778    -18.055916    0.000000    0.000000    0.000000    
-2.299210    82.806404    33.894871    2.587069    -11.054824    176.114853    4.228793    -0.063692    2.664048    0.781630    5.059457    2.627130    -5.416634    32.950886    3.683047    2.332721    -41.886040    4.088927    9.986288    9.007072    -2.510589    -80.701218    50.933460    9.557448    6.652833    -8.233406    -32.832413    -18.658960    -4.519117    -10.775269    -8.857061    3.775520    1.506063    56.597855    41.539330    13.792301    -7.215878    -19.001766    38.088219    8.370730    -15.968734    9.351515    18.937092    -42.975761    12.414324    -51.883797    83.441238    38.988480    1.429973    -13.705592    12.861752    0.000000    0.000000    0.000000    -0.776869    -7.665991    4.896253    6.457487    34.630085    4.848233    -5.845537    -32.435093    -17.256060    0.000000    0.000000    0.000000    
-2.483215    83.325493    31.627712    2.057673    -11.192501    175.475418    4.059225    0.069701    3.508366    -0.260326    4.443009    3.520913    -4.291833    33.340591    2.930906    1.514444    -42.116890    3.072286    10.509838    10.245676    -2.006235    -82.414742    53.352016    12.065310    6.965722    -8.053447    -33.677200    -16.855614    -4.355757    -10.827230    -8.679214    3.937021    0.565514    56.438686    42.376064    13.866384    -8.750021    -18.162003    39.820259    8.898621    -14.353784    10.144672    19.858377    -44.509209    13.258210    -44.128597    80.511749    33.581848    2.182377    -13.044199    11.072672    0.000000    0.000000    0.000000    -1.521379    -4.633739    5.379152    5.432191    31.513697    14.237709    -10.945536    -29.820890    -26.059578    0.000000    0.000000    0.000000    
-2.694922    83.910713    29.302797    1.397436    -11.310745    174.952789    3.603153    0.234532    4.239495    -0.955679    3.625245    4.277108    -3.994748    33.389126    2.240356    2.026315    -41.468639    2.648238    10.836866    11.298789    -1.488531    -84.401634    54.942692    15.105465    3.437621    -19.262568    -37.610588    -19.266367    -17.064669    -6.722478    -8.794310    4.347675    -0.280315    56.558895    43.660694    13.809563    -9.073087    -20.614765    42.529884    9.861672    -16.499430    9.282062    20.461300    -45.711449    13.476653    -36.558449    77.022346    25.100023    1.549180    -12.415254    10.645211    0.000000    0.000000    0.000000    -2.247146    -1.811644    5.725054    4.222541    27.803846    12.872417    -6.800966    -29.020344    -23.144293    0.000000    0.000000    0.000000    
